PathFileType	3	(X/Y/Z)	RCH0000002 BBF 11.c3d
DataRate	CameraRate	NumFrames	NumMarkers	Units	OrigDataRate	OrigDataStartFrame	OrigNumFrames
100.0	100.0	13	23	mm	100.0	45	502
Frame#	Time	T2			T10			MAN			LASI			RASI			LPSI			RPSI			LPAT			LKNE			LANK			LMED			LTOE			RPAT			RKNE			RANK			RMED			RHEE			RTOE			LHEE			RTHI			LTHI			RTIB			LTIB			
		X1	Y1	Z1	X2	Y2	Z2	X3	Y3	Z3	X4	Y4	Z4	X5	Y5	Z5	X6	Y6	Z6	X7	Y7	Z7	X8	Y8	Z8	X9	Y9	Z9	X10	Y10	Z10	X11	Y11	Z11	X12	Y12	Z12	X13	Y13	Z13	X14	Y14	Z14	X15	Y15	Z15	X16	Y16	Z16	X17	Y17	Z17	X18	Y18	Z18	X19	Y19	Z19	X20	Y20	Z20	X21	Y21	Z21	X22	Y22	Z22	X23	Y23	Z23	

45	0.440	-2496.28263	-48.02423	974.56799	-2518.02068	-56.85625	790.45725	-2372.94844	-21.09673	927.41195	-2427.08013	-4.25993	622.62852	-2439.59704	-176.20577	659.44509	-2539.09912	-33.61225	684.71615	-2541.73829	-102.05207	704.86478	-2318.40320	-46.17700	412.82151	-2348.32926	11.01147	359.55944	-2370.65470	32.92017	89.80547	-2361.74621	-38.31159	98.06862	-2319.26007	-0.20132	84.87157	-2553.25762	-130.39455	374.40774	-2601.26937	-190.73624	360.46991	-2720.51882	-182.80039	105.21494	-2735.09533	-117.52646	127.24335	-2760.45736	-160.37575	153.88792	-2687.57866	-137.53103	82.76348	-2410.80049	-10.93393	113.08394	-2531.88580	-254.41125	452.50304	-2408.18241	81.34693	469.08780	-2654.34109	-254.18797	247.06759	-2359.63000	83.23726	251.55717	
46	0.450	-2484.30696	-45.26175	970.53564	-2502.93295	-56.79169	786.59136	-2360.09322	-19.59458	925.08967	-2412.40349	-3.76222	620.44086	-2424.65004	-176.29548	655.03081	-2524.40555	-33.43106	682.27147	-2526.86142	-102.38164	701.39300	-2306.38422	-49.02460	407.38677	-2335.75572	9.50119	354.77908	-2365.09188	33.02489	86.58680	-2357.29065	-38.35678	95.05332	-2313.96706	-0.45796	82.16088	-2538.25866	-129.37076	369.53325	-2586.86586	-189.26075	356.50601	-2713.52229	-183.65484	105.78945	-2727.85575	-118.62486	128.18167	-2751.48812	-161.58742	155.91196	-2682.96745	-138.02427	81.65719	-2405.19427	-10.68225	110.15264	-2517.97408	-253.43670	448.56267	-2392.88252	80.15043	465.42796	-2642.32073	-253.60419	245.36703	-2349.05760	82.01194	248.07314	
47	0.460	-2472.37754	-42.58932	966.67305	-2487.94207	-56.80606	782.90781	-2347.31329	-18.15281	922.90511	-2397.95628	-3.18710	618.45324	-2409.78530	-176.29796	650.68069	-2509.87265	-33.35975	680.04204	-2512.08590	-102.80397	698.07887	-2294.67435	-51.48151	402.19816	-2323.56719	8.27908	350.25336	-2359.82790	33.29022	83.56446	-2353.09275	-38.23352	92.26373	-2308.97317	-0.56500	79.58629	-2523.11373	-128.21418	364.65206	-2572.29039	-187.67881	352.48816	-2706.32923	-184.48012	106.44142	-2720.44946	-119.68047	129.18011	-2742.28400	-162.74419	157.98412	-2678.20889	-138.50889	80.64032	-2399.86177	-10.25381	107.46240	-2503.91858	-252.35051	444.59613	-2378.03710	79.19756	462.00945	-2630.04253	-252.92803	243.63988	-2338.85976	81.05193	244.75253	
48	0.470	-2460.51459	-40.09463	963.15147	-2473.11949	-56.96381	779.58604	-2334.65654	-16.82499	920.99687	-2383.92444	-2.46324	616.85125	-2395.05441	-176.12874	646.47912	-2495.62179	-33.48476	678.22893	-2497.48129	-103.38874	695.07917	-2283.56358	-53.21805	397.47080	-2312.12728	7.58706	346.20621	-2355.11421	33.83482	80.90415	-2349.36291	-37.81433	89.88986	-2304.52748	-0.40643	77.26601	-2507.63968	-126.81341	359.80220	-2557.33680	-185.90064	348.40521	-2698.68490	-185.24584	107.25091	-2712.64323	-120.64800	130.29652	-2732.57192	-163.78752	160.15071	-2673.06493	-138.97681	79.80859	-2395.03441	-9.51978	105.21290	-2489.55263	-251.05813	440.62183	-2364.05195	78.69436	459.04603	-2617.22658	-252.08098	241.89588	-2329.38587	80.57419	241.73742	
49	0.480	-2448.72700	-37.85200	960.11641	-2458.51736	-57.31099	776.77629	-2322.15443	-15.65284	919.48254	-2370.44528	-1.53454	615.78236	-2380.49085	-175.71793	642.50946	-2481.73804	-33.86351	676.99339	-2483.09473	-104.17963	692.52642	-2273.29411	-53.98244	393.36138	-2301.74560	7.60857	342.80100	-2351.11846	34.73642	78.71246	-2346.24180	-37.01407	88.06055	-2300.79831	0.09543	75.28286	-2491.67875	-125.08927	355.04358	-2541.82808	-183.86266	344.27530	-2690.36185	-185.93117	108.29797	-2704.22074	-121.49073	131.58619	-2722.12169	-164.66701	162.45825	-2667.29906	-139.42776	79.25569	-2390.87404	-8.39370	103.53202	-2474.73339	-249.49039	436.68319	-2351.25486	78.79604	456.69871	-2603.64659	-251.00700	240.16972	-2320.91161	80.73950	239.12363	
50	0.490	-2437.01860	-35.91927	957.68122	-2444.17420	-57.87063	774.59227	-2309.82721	-14.66385	918.45287	-2357.60519	-0.36502	615.34608	-2366.11625	-175.01522	638.85425	-2468.27190	-34.51793	676.44637	-2468.95610	-105.18842	690.52265	-2264.05119	-53.62480	389.95811	-2292.66351	8.45095	340.13017	-2347.91737	36.02178	77.03073	-2343.79270	-35.80035	86.83411	-2297.86403	0.97147	73.67979	-2475.11671	-123.00341	350.46250	-2525.63602	-181.53464	340.15243	-2681.17421	-186.52531	109.65635	-2694.99560	-122.18202	133.09652	-2710.76460	-165.34293	164.94788	-2660.68596	-139.86889	79.06779	-2387.46601	-6.84339	102.46672	-2459.36041	-247.61072	432.85402	-2339.87873	79.59171	455.06470	-2589.15202	-249.67866	238.52480	-2313.62826	81.63550	236.95608	
51	0.500	-2425.39245	-34.33695	955.92541	-2430.11972	-58.64171	773.10908	-2297.68826	-13.87101	917.96999	-2345.44271	1.05987	615.59192	-2351.94546	-173.99182	635.59487	-2455.24387	-35.43412	676.64620	-2455.08304	-106.39471	689.13771	-2255.96012	-52.10755	387.28253	-2285.04635	10.13828	338.21750	-2345.50851	37.66465	75.84279	-2342.00885	-34.19549	86.20249	-2295.72157	2.20508	72.46315	-2457.88886	-120.55973	346.17046	-2508.68834	-178.92064	336.12594	-2670.98097	-187.02543	111.38615	-2684.81547	-122.70478	134.86150	-2698.39717	-165.78700	167.64942	-2653.01605	-140.31202	79.31700	-2384.82702	-4.89500	101.99073	-2443.38364	-245.41670	429.23789	-2330.05522	81.09892	454.17719	-2573.67258	-248.09851	237.05111	-2307.64624	83.27003	235.23500	
52	0.510	-2413.85343	-33.12820	954.89562	-2416.37840	-59.60102	772.36446	-2285.74708	-13.27376	918.06805	-2333.95509	2.73439	616.52253	-2337.99008	-172.64027	632.80986	-2442.65065	-36.56666	677.60150	-2441.48508	-107.75001	688.41000	-2249.08691	-49.50423	385.29993	-2278.97943	12.61293	337.02923	-2343.83198	39.58998	75.09159	-2340.82915	-32.27212	86.10474	-2294.30488	3.73719	71.61079	-2439.97744	-117.80018	342.29794	-2490.96694	-176.05548	332.31387	-2659.68224	-187.43280	113.52552	-2673.56107	-123.04961	136.89629	-2684.97470	-165.98201	170.57508	-2644.09842	-140.76916	80.05422	-2382.92018	-2.63074	102.02310	-2426.80371	-242.93748	425.96185	-2321.81583	83.26633	454.01254	-2557.21004	-246.29637	235.85742	-2303.00602	85.57337	233.92857	
53	0.520	-2402.40933	-32.29952	954.60784	-2402.97156	-60.70713	772.36174	-2274.01117	-12.85999	918.75494	-2323.10649	4.63519	618.10014	-2324.26059	-170.97282	630.57175	-2430.47173	-37.84646	679.27740	-2428.16695	-109.18498	688.34852	-2243.44077	-45.98759	383.93527	-2274.46694	15.74469	336.49030	-2342.79406	41.68282	74.69938	-2340.15617	-30.14386	86.44548	-2293.50696	5.47527	71.08234	-2421.40388	-114.79665	338.98431	-2472.50025	-172.99813	328.85181	-2647.21230	-187.74819	116.08291	-2661.14280	-123.21213	139.19252	-2670.49873	-165.92045	173.71404	-2633.76408	-141.24736	81.30219	-2381.67140	-0.18118	102.45220	-2409.66650	-240.22848	423.16551	-2315.09897	85.98331	454.50225	-2539.82229	-244.32341	235.05885	-2299.69093	88.40813	232.98823	
54	0.530	-2391.07061	-31.84145	955.05006	-2389.91837	-61.90567	773.07364	-2262.48661	-12.60839	920.01440	-2312.83708	6.72508	620.25478	-2310.76724	-169.01878	628.94241	-2418.67588	-39.19068	681.60340	-2415.13078	-110.61883	688.93534	-2238.97768	-41.80753	383.09138	-2271.43418	19.34665	336.50214	-2342.28750	43.80086	74.58691	-2339.87285	-27.95221	87.11458	-2293.20061	7.30489	70.82917	-2402.21853	-111.64054	336.36531	-2453.35206	-169.82351	325.87881	-2633.53166	-187.96760	119.03123	-2647.49698	-123.19016	141.71563	-2655.00163	-165.60250	177.02888	-2621.87050	-141.74383	83.05037	-2380.98319	2.28732	103.15958	-2392.05389	-237.36418	420.98711	-2309.76261	89.09502	455.54691	-2521.60353	-242.24390	234.76171	-2297.63860	91.58595	232.36267	
55	0.540	-2379.84929	-31.72961	956.18510	-2377.23581	-63.13543	774.44658	-2251.17777	-12.49118	921.80830	-2303.07209	8.95716	622.89342	-2297.51998	-166.82115	627.96767	-2407.22696	-40.51365	684.48188	-2402.37759	-111.96951	690.12822	-2235.60484	-37.26035	382.66591	-2269.73439	23.19678	336.95886	-2342.20580	45.78952	74.68792	-2339.85575	-25.85096	88.00478	-2293.25498	9.10295	70.80270	-2382.48964	-108.43153	334.56028	-2433.60882	-166.61349	323.52275	-2618.62005	-188.07937	122.30588	-2632.58277	-122.98138	144.40506	-2638.53133	-165.03393	180.45499	-2608.30724	-142.24258	85.25317	-2380.74483	4.58929	104.03975	-2374.07216	-234.43022	419.54871	-2305.60202	92.42134	457.03039	-2502.66411	-240.12573	235.04824	-2296.74969	94.88916	232.00803	
56	0.550	-2368.75730	-31.92600	957.95349	-2364.93809	-64.33459	776.40521	-2240.08640	-12.47699	924.07886	-2293.73042	11.27909	625.90884	-2284.52783	-164.43269	627.67194	-2396.08887	-41.73733	687.79644	-2389.90800	-113.16351	691.86337	-2233.18622	-32.65270	382.56423	-2269.16079	27.06317	337.75954	-2342.45101	47.49880	74.95692	-2339.98464	-23.98908	89.02480	-2293.54716	10.75136	70.95967	-2362.29325	-105.26694	333.66078	-2413.36686	-163.44848	321.88714	-2602.47115	-188.06357	125.80766	-2616.38012	-122.58204	147.17792	-2621.13827	-164.22432	183.90381	-2593.00161	-142.71331	87.83226	-2380.83937	6.54043	105.01298	-2355.83935	-231.51519	418.94268	-2302.37191	95.77719	458.83240	-2483.11274	-238.03109	235.96395	-2296.89422	98.09554	231.89292	
57	0.560	-2357.80454	-32.38086	960.27658	-2353.03565	-65.44654	778.85717	-2229.21035	-12.53364	926.75108	-2284.73233	13.63702	629.18795	-2271.79795	-161.91162	628.05386	-2385.22923	-42.80024	691.41965	-2377.72251	-114.14415	694.05828	-2231.55006	-28.26467	382.70675	-2269.46375	30.72991	338.81571	-2342.93608	48.80058	75.37031	-2340.14919	-22.49370	90.10691	-2293.96883	12.15018	71.26451	-2341.70452	-102.23267	333.72243	-2392.72057	-160.39996	321.04110	-2585.08942	-187.89366	129.41072	-2598.88850	-121.98696	149.93606	-2602.86608	-163.18607	187.26963	-2575.92316	-143.11320	90.68343	-2381.14884	7.97958	106.03043	-2337.47261	-228.70297	419.22137	-2299.81108	98.99170	460.83871	-2463.04280	-236.00864	237.51010	-2297.91669	101.00308	231.99853	
